<svg xmlns="http://www.w3.org/2000/svg" xmlns:xlink="http://www.w3.org/1999/xlink" width="1080" zoomAndPan="magnify" viewBox="0 0 810 809.999993" height="1080" preserveAspectRatio="xMidYMid meet" version="1.0"><defs><g/><clipPath id="907871bdf4"><path d="M 178 176 L 632.355469 176 L 632.355469 634.558594 L 178 634.558594 Z M 178 176 " clip-rule="nonzero"/></clipPath></defs><g clip-path="url(#907871bdf4)"><path fill="#e2b616" d="M 627.378906 341.453125 L 232.921875 341.453125 L 613.910156 239.378906 C 616.382812 238.738281 617.847656 236.171875 617.207031 233.699219 L 602.730469 179.636719 C 602.089844 177.164062 599.523438 175.699219 597.050781 176.339844 L 181.792969 287.574219 C 179.320312 288.214844 177.855469 290.78125 178.496094 293.253906 L 192.789062 346.675781 L 192.789062 615.601562 C 192.789062 625.863281 201.128906 634.292969 211.480469 634.292969 L 613.449219 634.292969 C 623.714844 634.292969 632.144531 625.953125 632.144531 615.601562 L 632.144531 346.03125 C 632.050781 343.558594 629.945312 341.453125 627.378906 341.453125 Z M 627.378906 341.453125 " fill-opacity="1" fill-rule="nonzero"/></g><path fill="#000000" d="M 588.253906 236.628906 L 554.992188 197.230469 L 505.148438 210.609375 L 538.40625 249.914062 Z M 588.253906 236.628906 " fill-opacity="1" fill-rule="nonzero"/><path fill="#000000" d="M 488.5625 263.292969 L 455.300781 223.894531 L 405.457031 237.269531 L 438.71875 276.671875 Z M 488.5625 263.292969 " fill-opacity="1" fill-rule="nonzero"/><path fill="#000000" d="M 388.871094 290.046875 L 355.609375 250.648438 L 305.765625 264.027344 L 339.027344 303.335938 Z M 388.871094 290.046875 " fill-opacity="1" fill-rule="nonzero"/><path fill="#000000" d="M 289.179688 316.710938 L 255.921875 277.402344 L 206.074219 290.691406 L 239.425781 330.089844 Z M 289.179688 316.710938 " fill-opacity="1" fill-rule="nonzero"/><path fill="#000000" d="M 221.46875 397.4375 L 273.148438 397.4375 L 295.046875 350.796875 L 243.460938 350.796875 Z M 221.46875 397.4375 " fill-opacity="1" fill-rule="nonzero"/><path fill="#000000" d="M 324.734375 397.4375 L 376.320312 397.4375 L 398.21875 350.796875 L 346.632812 350.796875 Z M 324.734375 397.4375 " fill-opacity="1" fill-rule="nonzero"/><path fill="#000000" d="M 427.90625 397.4375 L 479.492188 397.4375 L 501.480469 350.796875 L 449.894531 350.796875 Z M 427.90625 397.4375 " fill-opacity="1" fill-rule="nonzero"/><path fill="#000000" d="M 553.070312 350.796875 L 531.078125 397.4375 L 582.753906 397.4375 L 604.65625 350.796875 Z M 553.070312 350.796875 " fill-opacity="1" fill-rule="nonzero"/><path stroke-linecap="butt" transform="matrix(0.75, 0, 0, 0.75, 225.92639, 426.622703)" fill="none" stroke-linejoin="miter" d="M 176.259614 105.99786 L 157.67628 105.99786 L 157.67628 55.133274 C 157.67628 53.732233 157.697113 51.997858 157.73878 49.930149 C 157.780447 47.867649 157.837738 45.742649 157.921072 43.560357 C 157.999197 41.372857 158.077322 39.398899 158.160655 37.633274 C 157.717947 38.159315 156.827322 39.04994 155.483572 40.310357 C 154.139821 41.575982 152.889821 42.70619 151.728363 43.70619 L 141.624196 51.825983 L 132.665862 40.64369 L 160.983572 18.096814 L 176.259614 18.096814 Z M 266.499202 37.758274 C 266.499202 41.805149 265.66066 45.310357 263.978369 48.279107 C 262.290869 51.242649 260.020035 53.669733 257.150243 55.555149 C 254.28566 57.435358 251.06691 58.820775 247.499201 59.700983 L 247.499201 60.065566 C 254.556493 60.945775 259.915868 63.107233 263.587744 66.55515 C 267.25441 70.003067 269.087744 74.612442 269.087744 80.388484 C 269.087744 85.518693 267.832535 90.107234 265.327327 94.15411 C 262.822119 98.200985 258.967952 101.388485 253.75441 103.71661 C 248.546076 106.039527 241.827326 107.200985 233.613784 107.200985 C 228.759617 107.200985 224.243992 106.81036 220.051283 106.02911 C 215.863783 105.24786 211.926283 104.055152 208.238782 102.450985 L 208.238782 86.638484 C 212.004408 88.565568 215.952325 90.018693 220.082533 90.99786 C 224.212742 91.982235 228.0617 92.471818 231.629409 92.471818 C 238.280451 92.471818 242.941909 91.320776 245.608576 89.013484 C 248.275243 86.711401 249.603368 83.471817 249.603368 79.305151 C 249.603368 76.857234 248.983576 74.794734 247.743993 73.112442 C 246.499201 71.424942 244.342951 70.143692 241.280451 69.263483 C 238.212742 68.378067 233.931492 67.940567 228.441909 67.940567 L 221.764825 67.940567 L 221.764825 53.690566 L 228.5617 53.690566 C 233.973159 53.690566 238.092951 53.180149 240.915867 52.154108 C 243.743993 51.133274 245.665868 49.732232 246.691909 47.945774 C 247.712743 46.164524 248.22316 44.128066 248.22316 41.846815 C 248.22316 38.716607 247.259618 36.273898 245.337743 34.508273 C 243.410659 32.747857 240.207534 31.86244 235.717951 31.86244 C 232.910659 31.86244 230.353367 32.216607 228.051283 32.914523 C 225.743992 33.617648 223.671075 34.461398 221.827325 35.440565 C 219.983575 36.42494 218.358575 37.372857 216.957533 38.294732 L 208.358574 25.48744 C 211.806491 23.003064 215.84295 20.940564 220.473158 19.294731 C 225.103367 17.654106 230.6242 16.831189 237.040867 16.831189 C 246.098159 16.831189 253.275243 18.654106 258.56691 22.305148 C 263.858577 25.950981 266.499202 31.102023 266.499202 37.758274 Z M 316.941913 16.950981 C 321.993997 16.950981 326.650247 17.732231 330.92108 19.294731 C 335.191914 20.862439 338.608581 23.216606 341.171081 26.36244 C 343.738789 29.508273 345.020039 33.445773 345.020039 38.17494 C 345.020039 41.70619 344.327331 44.789524 342.947123 47.435357 C 341.561706 50.081191 339.686706 52.398899 337.322122 54.383274 C 334.957539 56.367649 332.275247 58.096816 329.26483 59.581191 C 332.395039 61.227025 335.358581 63.138483 338.165872 65.325983 C 340.973164 67.508275 343.264831 70.065567 345.051289 72.99265 C 346.832539 75.914525 347.728373 79.325984 347.728373 83.211401 C 347.728373 88.102026 346.421081 92.34161 343.816914 95.930151 C 341.212748 99.518693 337.603372 102.294735 332.993997 104.258277 C 328.384622 106.221819 323.035663 107.200985 316.941913 107.200985 C 310.368996 107.200985 304.775246 106.258277 300.16587 104.378069 C 295.556495 102.492652 292.046078 99.794735 289.645037 96.289526 C 287.238786 92.784318 286.035661 88.581193 286.035661 83.690567 C 286.035661 79.685359 286.785661 76.195775 288.29087 73.232234 C 289.796078 70.263483 291.827328 67.7114 294.395037 65.565567 C 296.957537 63.419733 299.785662 61.5864 302.868996 60.065566 C 300.264829 58.419733 297.889829 56.555149 295.743995 54.471816 C 293.60337 52.388483 291.900245 50.003066 290.63462 47.315566 C 289.374203 44.628066 288.743995 41.544732 288.743995 38.055149 C 288.743995 33.409315 290.056495 29.51869 292.681495 26.39369 C 295.306495 23.263481 298.764829 20.909314 303.051287 19.325981 C 307.342954 17.742648 311.973163 16.950981 316.941913 16.950981 Z M 303.233579 82.612442 C 303.233579 85.779109 304.363787 88.393693 306.629412 90.456193 C 308.895038 92.523901 312.249204 93.555151 316.70233 93.555151 C 321.311705 93.555151 324.759622 92.56036 327.040872 90.575985 C 329.32733 88.591609 330.467955 85.977026 330.467955 82.732234 C 330.467955 80.487442 329.816914 78.523901 328.51483 76.8364 C 327.212747 75.154109 325.57733 73.643692 323.613788 72.299942 C 321.650247 70.956192 319.665871 69.700983 317.660663 68.539525 L 316.040871 67.700983 C 313.473163 68.862442 311.238788 70.164525 309.332538 71.607234 C 307.431496 73.049942 305.936704 74.674942 304.853371 76.477025 C 303.775246 78.279109 303.233579 80.325984 303.233579 82.612442 Z M 316.822121 30.539523 C 313.775246 30.539523 311.249204 31.320773 309.243996 32.883273 C 307.238787 34.450982 306.238787 36.654107 306.238787 39.497857 C 306.238787 41.503065 306.728371 43.258274 307.712746 44.758274 C 308.691913 46.263482 309.993996 47.575982 311.618996 48.700982 C 313.243996 49.820774 315.01483 50.862441 316.941913 51.825983 C 318.785663 50.945774 320.509621 49.961399 322.113788 48.878066 C 323.717955 47.794732 325.020038 46.492649 326.020038 44.971816 C 327.020038 43.445774 327.525247 41.622857 327.525247 39.497857 C 327.525247 36.654107 326.509622 34.450982 324.488788 32.883273 C 322.462747 31.320773 319.905455 30.539523 316.822121 30.539523 Z M 316.822121 30.539523 " stroke="#000000" stroke-width="6.77281" stroke-opacity="1" stroke-miterlimit="4"/><path stroke-linecap="butt" transform="matrix(0.75, 0, 0, 0.75, 225.92639, 426.622703)" fill="none" stroke-linejoin="miter" d="M 88.582526 155.513488 C 96.19711 155.513488 101.962735 157.471821 105.868986 161.378071 C 109.775236 165.284322 111.733569 171.549947 111.733569 180.169739 L 111.733569 223.997866 L 93.332527 223.997866 L 93.332527 184.737448 C 93.332527 179.924947 92.50961 176.299947 90.868985 173.85203 C 89.223152 171.409322 86.676276 170.185364 83.233568 170.185364 C 78.379401 170.185364 74.931484 171.919739 72.889817 175.388489 C 70.842942 178.857239 69.822109 183.815573 69.822109 190.268698 L 69.822109 223.997866 L 51.483566 223.997866 L 51.483566 184.737448 C 51.483566 181.529114 51.124191 178.846822 50.400233 176.680156 C 49.681483 174.513489 48.577316 172.893697 47.092941 171.810364 C 45.613774 170.72703 43.707524 170.185364 41.384607 170.185364 C 37.978357 170.185364 35.301274 171.03953 33.358565 172.742655 C 31.410649 174.44578 30.03044 176.950989 29.207523 180.258281 C 28.384607 183.565573 27.973148 187.602031 27.973148 192.372865 L 27.973148 223.997866 L 9.634606 223.997866 L 9.634606 156.779113 L 23.645023 156.779113 L 26.108565 165.378072 L 27.134607 165.378072 C 28.493982 163.049946 30.207524 161.169738 32.275232 159.721821 C 34.337732 158.279113 36.613774 157.216613 39.098149 156.539529 C 41.582524 155.857238 44.108566 155.513488 46.676274 155.513488 C 51.603358 155.513488 55.78565 156.315571 59.212733 157.919738 C 62.639817 159.523905 65.275234 162.00828 67.118984 165.378072 L 68.738775 165.378072 C 70.743984 161.930155 73.582526 159.424946 77.249193 157.862446 C 80.915859 156.294738 84.691901 155.513488 88.582526 155.513488 Z M 199.384615 190.268698 C 199.384615 195.878073 198.629407 200.852032 197.129407 205.180157 C 195.624199 209.508282 193.441907 213.164532 190.577323 216.154116 C 187.707531 219.138491 184.259615 221.393699 180.233573 222.919741 C 176.202323 224.440575 171.665864 225.200991 166.61378 225.200991 C 161.884613 225.200991 157.546072 224.440575 153.598155 222.919741 C 149.650238 221.393699 146.223154 219.138491 143.316904 216.154116 C 140.410654 213.164532 138.165862 209.508282 136.582529 205.180157 C 134.999195 200.852032 134.207529 195.878073 134.207529 190.268698 C 134.207529 182.815572 135.530446 176.497864 138.176279 171.331197 C 140.822112 166.159322 144.587738 162.22703 149.478363 159.544738 C 154.368988 156.857238 160.202322 155.513488 166.973155 155.513488 C 173.270031 155.513488 178.848156 156.857238 183.717948 159.544738 C 188.592948 162.22703 192.421073 166.159322 195.202324 171.331197 C 197.988782 176.497864 199.384615 182.815572 199.384615 190.268698 Z M 152.905446 190.268698 C 152.905446 194.680156 153.384613 198.38849 154.348155 201.393698 C 155.311697 204.398907 156.811697 206.664532 158.858572 208.185365 C 160.900238 209.711407 163.566905 210.471824 166.853364 210.471824 C 170.103364 210.471824 172.738781 209.711407 174.759614 208.185365 C 176.785656 206.664532 178.270031 204.398907 179.212739 201.393698 C 180.155448 198.38849 180.624198 194.680156 180.624198 190.268698 C 180.624198 185.820781 180.155448 182.122864 179.212739 179.174947 C 178.270031 176.22703 176.775239 174.013489 174.733572 172.529114 C 172.686697 171.049947 170.020031 170.305155 166.733572 170.305155 C 161.884613 170.305155 158.368988 171.971822 156.181488 175.294739 C 153.999196 178.622864 152.905446 183.612448 152.905446 190.268698 Z M 238.280451 223.997866 L 212.665866 156.779113 L 231.84295 156.779113 L 244.832534 195.081198 C 245.551284 197.32599 246.124201 199.690573 246.546076 202.174948 C 246.967951 204.659324 247.254409 206.883282 247.415868 208.846824 L 247.900243 208.846824 C 248.020034 206.721824 248.306493 204.456199 248.770035 202.055157 C 249.233576 199.648907 249.842951 197.32599 250.603368 195.081198 L 263.530452 156.779113 L 282.712745 156.779113 L 257.09816 223.997866 Z M 318.42108 156.779113 L 318.42108 223.997866 L 300.082537 223.997866 L 300.082537 156.779113 Z M 309.280454 130.44057 C 312.004413 130.44057 314.353371 131.075987 316.316913 132.336403 C 318.280455 133.59682 319.259621 135.956195 319.259621 139.398904 C 319.259621 142.810362 318.280455 145.164529 316.316913 146.466612 C 314.353371 147.768696 312.004413 148.419737 309.280454 148.419737 C 306.514829 148.419737 304.160662 147.768696 302.217954 146.466612 C 300.270037 145.164529 299.301287 142.810362 299.301287 139.398904 C 299.301287 135.956195 300.270037 133.59682 302.217954 132.336403 C 304.160662 131.075987 306.514829 130.44057 309.280454 130.44057 Z M 373.134624 155.513488 C 379.348166 155.513488 384.697125 156.706196 389.186708 159.091613 C 393.676292 161.47703 397.145042 164.935363 399.58775 169.466613 C 402.035667 173.992655 403.254417 179.523906 403.254417 186.060364 L 403.254417 194.956198 L 359.905457 194.956198 C 360.103373 200.128073 361.660665 204.190574 364.566915 207.133282 C 367.473166 210.081199 371.509624 211.555157 376.681499 211.555157 C 380.967958 211.555157 384.895041 211.112449 388.46275 210.232241 C 392.030458 209.346824 395.702334 208.023907 399.467959 206.26349 L 399.467959 220.450991 C 396.139834 222.096824 392.665875 223.29995 389.035667 224.060366 C 385.410666 224.820783 381.009625 225.200991 375.837749 225.200991 C 369.103374 225.200991 363.139832 223.961408 357.952332 221.477033 C 352.759623 218.987449 348.691915 215.200991 345.743998 210.112449 C 342.796081 205.018699 341.327331 198.60724 341.327331 190.867656 C 341.327331 183.013489 342.660664 176.471822 345.322123 171.237447 C 347.98879 166.00828 351.70754 162.081196 356.478373 159.456196 C 361.249207 156.825988 366.80129 155.513488 373.134624 155.513488 Z M 373.254416 168.560363 C 369.686707 168.560363 366.728374 169.706197 364.384624 171.992655 C 362.040874 174.273905 360.686707 177.862447 360.327332 182.753072 L 386.061708 182.753072 C 386.020041 180.029114 385.530458 177.602031 384.58775 175.47703 C 383.645041 173.35203 382.244 171.669739 380.379416 170.424947 C 378.514833 169.185363 376.139833 168.560363 373.254416 168.560363 Z M 472.816921 204.039532 C 472.816921 208.60724 471.744004 212.466616 469.598171 215.612449 C 467.452337 218.758283 464.259629 221.143699 460.009628 222.768699 C 455.759628 224.388491 450.467961 225.200991 444.134628 225.200991 C 439.447127 225.200991 435.426294 224.904116 432.077335 224.29995 C 428.733585 223.700991 425.353377 222.695783 421.947127 221.294741 L 421.947127 206.143699 C 425.598168 207.784324 429.514835 209.13849 433.702336 210.200991 C 437.889836 211.263491 441.572128 211.794741 444.738794 211.794741 C 448.306503 211.794741 450.858586 211.263491 452.400253 210.200991 C 453.947128 209.13849 454.717962 207.747865 454.717962 206.023907 C 454.717962 204.898907 454.405462 203.88849 453.78567 202.987448 C 453.165878 202.081198 451.832545 201.060365 449.78567 199.91974 C 447.744003 198.779115 444.535669 197.284323 440.165877 195.440573 C 435.957544 193.674948 432.49921 191.893698 429.796085 190.086406 C 427.087752 188.284323 425.082543 186.148906 423.78046 183.685364 C 422.478377 181.221822 421.827335 178.081197 421.827335 174.273905 C 421.827335 168.060363 424.244002 163.38328 429.072127 160.237446 C 433.905461 157.086405 440.369003 155.513488 448.462753 155.513488 C 452.634628 155.513488 456.613795 155.935363 460.400254 156.779113 C 464.186712 157.617655 468.087754 158.961405 472.092962 160.805155 L 466.561712 174.034322 C 463.233587 172.591614 460.09817 171.409322 457.150253 170.487447 C 454.207545 169.565572 451.212753 169.10203 448.165878 169.10203 C 445.478378 169.10203 443.452336 169.466613 442.092961 170.185364 C 440.728378 170.909322 440.046086 172.00828 440.046086 173.492655 C 440.046086 174.575989 440.395044 175.53953 441.098169 176.378072 C 441.801294 177.221822 443.160669 178.154114 445.186711 179.174947 C 447.212753 180.195781 450.186711 181.508281 454.113795 183.112447 C 457.926295 184.674948 461.233587 186.310364 464.03567 188.013489 C 466.842962 189.716614 469.009629 191.820781 470.530462 194.32599 C 472.056504 196.831198 472.816921 200.070782 472.816921 204.039532 Z M 472.816921 204.039532 " stroke="#000000" stroke-width="6.77281" stroke-opacity="1" stroke-miterlimit="4"/><g fill="#000000" fill-opacity="1"><g transform="translate(319.969354, 506.122699)"><g><path d="M 38.15625 0 L 24.21875 0 L 24.21875 -38.15625 C 24.21875 -39.207031 24.234375 -40.503906 24.265625 -42.046875 C 24.296875 -43.597656 24.335938 -45.191406 24.390625 -46.828125 C 24.453125 -48.472656 24.515625 -49.957031 24.578125 -51.28125 C 24.242188 -50.882812 23.570312 -50.210938 22.5625 -49.265625 C 21.5625 -48.316406 20.625 -47.46875 19.75 -46.71875 L 12.171875 -40.625 L 5.453125 -49.015625 L 26.703125 -65.9375 L 38.15625 -65.9375 Z M 38.15625 0 "/></g></g></g><g fill="#000000" fill-opacity="1"><g transform="translate(378.587877, 506.122699)"><g><path d="M 47.21875 -51.1875 C 47.21875 -48.144531 46.582031 -45.507812 45.3125 -43.28125 C 44.050781 -41.0625 42.347656 -39.242188 40.203125 -37.828125 C 38.054688 -36.421875 35.644531 -35.382812 32.96875 -34.71875 L 32.96875 -34.453125 C 38.257812 -33.796875 42.28125 -32.171875 45.03125 -29.578125 C 47.78125 -26.992188 49.15625 -23.539062 49.15625 -19.21875 C 49.15625 -15.363281 48.210938 -11.914062 46.328125 -8.875 C 44.453125 -5.84375 41.5625 -3.453125 37.65625 -1.703125 C 33.75 0.0351562 28.710938 0.90625 22.546875 0.90625 C 18.910156 0.90625 15.519531 0.609375 12.375 0.015625 C 9.238281 -0.566406 6.285156 -1.457031 3.515625 -2.65625 L 3.515625 -14.515625 C 6.335938 -13.078125 9.296875 -11.988281 12.390625 -11.25 C 15.492188 -10.507812 18.382812 -10.140625 21.0625 -10.140625 C 26.050781 -10.140625 29.546875 -11.003906 31.546875 -12.734375 C 33.546875 -14.460938 34.546875 -16.890625 34.546875 -20.015625 C 34.546875 -21.859375 34.078125 -23.410156 33.140625 -24.671875 C 32.210938 -25.929688 30.597656 -26.890625 28.296875 -27.546875 C 25.992188 -28.210938 22.785156 -28.546875 18.671875 -28.546875 L 13.671875 -28.546875 L 13.671875 -39.234375 L 18.765625 -39.234375 C 22.816406 -39.234375 25.898438 -39.613281 28.015625 -40.375 C 30.140625 -41.144531 31.582031 -42.195312 32.34375 -43.53125 C 33.113281 -44.875 33.5 -46.40625 33.5 -48.125 C 33.5 -50.46875 32.773438 -52.300781 31.328125 -53.625 C 29.890625 -54.945312 27.488281 -55.609375 24.125 -55.609375 C 22.019531 -55.609375 20.101562 -55.34375 18.375 -54.8125 C 16.644531 -54.289062 15.085938 -53.660156 13.703125 -52.921875 C 12.328125 -52.179688 11.113281 -51.46875 10.0625 -50.78125 L 3.609375 -60.390625 C 6.191406 -62.253906 9.21875 -63.800781 12.6875 -65.03125 C 16.164062 -66.257812 20.3125 -66.875 25.125 -66.875 C 31.914062 -66.875 37.296875 -65.503906 41.265625 -62.765625 C 45.234375 -60.035156 47.21875 -56.175781 47.21875 -51.1875 Z M 47.21875 -51.1875 "/></g></g></g><g fill="#000000" fill-opacity="1"><g transform="translate(437.2064, 506.122699)"><g><path d="M 26.421875 -66.796875 C 30.210938 -66.796875 33.707031 -66.207031 36.90625 -65.03125 C 40.113281 -63.851562 42.675781 -62.082031 44.59375 -59.71875 C 46.519531 -57.363281 47.484375 -54.414062 47.484375 -50.875 C 47.484375 -48.226562 46.960938 -45.910156 45.921875 -43.921875 C 44.890625 -41.941406 43.484375 -40.207031 41.703125 -38.71875 C 39.929688 -37.226562 37.921875 -35.925781 35.671875 -34.8125 C 38.015625 -33.582031 40.238281 -32.144531 42.34375 -30.5 C 44.445312 -28.863281 46.164062 -26.945312 47.5 -24.75 C 48.84375 -22.5625 49.515625 -20.007812 49.515625 -17.09375 C 49.515625 -13.425781 48.535156 -10.242188 46.578125 -7.546875 C 44.628906 -4.859375 41.925781 -2.773438 38.46875 -1.296875 C 35.007812 0.171875 30.992188 0.90625 26.421875 0.90625 C 21.492188 0.90625 17.300781 0.195312 13.84375 -1.21875 C 10.382812 -2.632812 7.753906 -4.65625 5.953125 -7.28125 C 4.148438 -9.914062 3.25 -13.066406 3.25 -16.734375 C 3.25 -19.734375 3.8125 -22.347656 4.9375 -24.578125 C 6.0625 -26.804688 7.585938 -28.722656 9.515625 -30.328125 C 11.441406 -31.929688 13.5625 -33.304688 15.875 -34.453125 C 13.914062 -35.679688 12.132812 -37.078125 10.53125 -38.640625 C 8.925781 -40.210938 7.648438 -42.003906 6.703125 -44.015625 C 5.753906 -46.023438 5.28125 -48.335938 5.28125 -50.953125 C 5.28125 -54.441406 6.265625 -57.359375 8.234375 -59.703125 C 10.203125 -62.046875 12.789062 -63.8125 16 -65 C 19.21875 -66.195312 22.691406 -66.796875 26.421875 -66.796875 Z M 16.140625 -17.546875 C 16.140625 -15.171875 16.988281 -13.207031 18.6875 -11.65625 C 20.382812 -10.101562 22.90625 -9.328125 26.25 -9.328125 C 29.707031 -9.328125 32.289062 -10.070312 34 -11.5625 C 35.71875 -13.050781 36.578125 -15.015625 36.578125 -17.453125 C 36.578125 -19.140625 36.085938 -20.613281 35.109375 -21.875 C 34.128906 -23.132812 32.898438 -24.265625 31.421875 -25.265625 C 29.953125 -26.273438 28.46875 -27.21875 26.96875 -28.09375 L 25.75 -28.734375 C 23.820312 -27.859375 22.144531 -26.878906 20.71875 -25.796875 C 19.289062 -24.710938 18.171875 -23.492188 17.359375 -22.140625 C 16.546875 -20.785156 16.140625 -19.253906 16.140625 -17.546875 Z M 26.34375 -56.59375 C 24.050781 -56.59375 22.15625 -56.003906 20.65625 -54.828125 C 19.15625 -53.660156 18.40625 -52.007812 18.40625 -49.875 C 18.40625 -48.375 18.769531 -47.054688 19.5 -45.921875 C 20.238281 -44.796875 21.21875 -43.8125 22.4375 -42.96875 C 23.65625 -42.132812 24.984375 -41.351562 26.421875 -40.625 C 27.804688 -41.289062 29.097656 -42.03125 30.296875 -42.84375 C 31.503906 -43.65625 32.484375 -44.628906 33.234375 -45.765625 C 33.984375 -46.910156 34.359375 -48.28125 34.359375 -49.875 C 34.359375 -52.007812 33.597656 -53.660156 32.078125 -54.828125 C 30.566406 -56.003906 28.65625 -56.59375 26.34375 -56.59375 Z M 26.34375 -56.59375 "/></g></g></g><g fill="#000000" fill-opacity="1"><g transform="translate(225.938108, 594.622694)"><g><path d="M 66.421875 -51.359375 C 72.140625 -51.359375 76.460938 -49.894531 79.390625 -46.96875 C 82.328125 -44.039062 83.796875 -39.34375 83.796875 -32.875 L 83.796875 0 L 69.984375 0 L 69.984375 -29.453125 C 69.984375 -33.054688 69.367188 -35.773438 68.140625 -37.609375 C 66.910156 -39.441406 65.003906 -40.359375 62.421875 -40.359375 C 58.773438 -40.359375 56.1875 -39.054688 54.65625 -36.453125 C 53.125 -33.859375 52.359375 -30.140625 52.359375 -25.296875 L 52.359375 0 L 38.609375 0 L 38.609375 -29.453125 C 38.609375 -31.859375 38.335938 -33.867188 37.796875 -35.484375 C 37.253906 -37.109375 36.425781 -38.328125 35.3125 -39.140625 C 34.195312 -39.953125 32.769531 -40.359375 31.03125 -40.359375 C 28.46875 -40.359375 26.457031 -39.71875 25 -38.4375 C 23.539062 -37.164062 22.503906 -35.289062 21.890625 -32.8125 C 21.273438 -30.332031 20.96875 -27.300781 20.96875 -23.71875 L 20.96875 0 L 7.21875 0 L 7.21875 -50.421875 L 17.71875 -50.421875 L 19.578125 -43.96875 L 20.34375 -43.96875 C 21.363281 -45.707031 22.644531 -47.117188 24.1875 -48.203125 C 25.738281 -49.285156 27.445312 -50.082031 29.3125 -50.59375 C 31.175781 -51.101562 33.070312 -51.359375 35 -51.359375 C 38.695312 -51.359375 41.828125 -50.757812 44.390625 -49.5625 C 46.960938 -48.363281 48.941406 -46.5 50.328125 -43.96875 L 51.546875 -43.96875 C 53.046875 -46.550781 55.171875 -48.425781 57.921875 -49.59375 C 60.671875 -50.769531 63.503906 -51.359375 66.421875 -51.359375 Z M 66.421875 -51.359375 "/></g></g></g><g fill="#000000" fill-opacity="1"><g transform="translate(322.431997, 594.622694)"><g><path d="M 53.03125 -25.296875 C 53.03125 -21.085938 52.46875 -17.359375 51.34375 -14.109375 C 50.21875 -10.867188 48.578125 -8.128906 46.421875 -5.890625 C 44.273438 -3.648438 41.691406 -1.957031 38.671875 -0.8125 C 35.648438 0.332031 32.242188 0.90625 28.453125 0.90625 C 24.910156 0.90625 21.65625 0.332031 18.6875 -0.8125 C 15.726562 -1.957031 13.160156 -3.648438 10.984375 -5.890625 C 8.804688 -8.128906 7.125 -10.867188 5.9375 -14.109375 C 4.75 -17.359375 4.15625 -21.085938 4.15625 -25.296875 C 4.15625 -30.890625 5.144531 -35.625 7.125 -39.5 C 9.113281 -43.382812 11.941406 -46.332031 15.609375 -48.34375 C 19.273438 -50.351562 23.648438 -51.359375 28.734375 -51.359375 C 33.453125 -51.359375 37.632812 -50.351562 41.28125 -48.34375 C 44.9375 -46.332031 47.804688 -43.382812 49.890625 -39.5 C 51.984375 -35.625 53.03125 -30.890625 53.03125 -25.296875 Z M 18.171875 -25.296875 C 18.171875 -21.992188 18.53125 -19.210938 19.25 -16.953125 C 19.976562 -14.703125 21.109375 -13.003906 22.640625 -11.859375 C 24.171875 -10.710938 26.171875 -10.140625 28.640625 -10.140625 C 31.078125 -10.140625 33.050781 -10.710938 34.5625 -11.859375 C 36.082031 -13.003906 37.195312 -14.703125 37.90625 -16.953125 C 38.613281 -19.210938 38.96875 -21.992188 38.96875 -25.296875 C 38.96875 -28.640625 38.613281 -31.414062 37.90625 -33.625 C 37.195312 -35.832031 36.078125 -37.488281 34.546875 -38.59375 C 33.015625 -39.707031 31.015625 -40.265625 28.546875 -40.265625 C 24.910156 -40.265625 22.269531 -39.015625 20.625 -36.515625 C 18.988281 -34.023438 18.171875 -30.285156 18.171875 -25.296875 Z M 18.171875 -25.296875 "/></g></g></g><g fill="#000000" fill-opacity="1"><g transform="translate(385.424223, 594.622694)"><g><path d="M 19.21875 0 L 0 -50.421875 L 14.390625 -50.421875 L 24.125 -21.6875 C 24.664062 -20.007812 25.09375 -18.238281 25.40625 -16.375 C 25.726562 -14.507812 25.945312 -12.835938 26.0625 -11.359375 L 26.421875 -11.359375 C 26.515625 -12.953125 26.734375 -14.648438 27.078125 -16.453125 C 27.421875 -18.265625 27.878906 -20.007812 28.453125 -21.6875 L 38.15625 -50.421875 L 52.53125 -50.421875 L 33.328125 0 Z M 19.21875 0 "/></g></g></g><g fill="#000000" fill-opacity="1"><g transform="translate(443.77222, 594.622694)"><g><path d="M 20.96875 -50.421875 L 20.96875 0 L 7.21875 0 L 7.21875 -50.421875 Z M 14.109375 -70.171875 C 16.160156 -70.171875 17.921875 -69.695312 19.390625 -68.75 C 20.867188 -67.800781 21.609375 -66.035156 21.609375 -63.453125 C 21.609375 -60.898438 20.867188 -59.132812 19.390625 -58.15625 C 17.921875 -57.175781 16.160156 -56.6875 14.109375 -56.6875 C 12.035156 -56.6875 10.269531 -57.175781 8.8125 -58.15625 C 7.351562 -59.132812 6.625 -60.898438 6.625 -63.453125 C 6.625 -66.035156 7.351562 -67.800781 8.8125 -68.75 C 10.269531 -69.695312 12.035156 -70.171875 14.109375 -70.171875 Z M 14.109375 -70.171875 "/></g></g></g><g fill="#000000" fill-opacity="1"><g transform="translate(477.771745, 594.622694)"><g><path d="M 28 -51.359375 C 32.664062 -51.359375 36.679688 -50.460938 40.046875 -48.671875 C 43.410156 -46.890625 46.007812 -44.300781 47.84375 -40.90625 C 49.675781 -37.507812 50.59375 -33.359375 50.59375 -28.453125 L 50.59375 -21.78125 L 18.078125 -21.78125 C 18.234375 -17.90625 19.398438 -14.859375 21.578125 -12.640625 C 23.753906 -10.429688 26.785156 -9.328125 30.671875 -9.328125 C 33.878906 -9.328125 36.820312 -9.65625 39.5 -10.3125 C 42.175781 -10.976562 44.929688 -11.972656 47.765625 -13.296875 L 47.765625 -2.65625 C 45.265625 -1.425781 42.65625 -0.523438 39.9375 0.046875 C 37.21875 0.617188 33.914062 0.90625 30.03125 0.90625 C 24.976562 0.90625 20.503906 -0.0234375 16.609375 -1.890625 C 12.722656 -3.753906 9.675781 -6.59375 7.46875 -10.40625 C 5.257812 -14.226562 4.15625 -19.039062 4.15625 -24.84375 C 4.15625 -30.738281 5.148438 -35.644531 7.140625 -39.5625 C 9.140625 -43.488281 11.925781 -46.4375 15.5 -48.40625 C 19.082031 -50.375 23.25 -51.359375 28 -51.359375 Z M 28.09375 -41.578125 C 25.414062 -41.578125 23.195312 -40.71875 21.4375 -39 C 19.6875 -37.289062 18.675781 -34.601562 18.40625 -30.9375 L 37.703125 -30.9375 C 37.671875 -32.976562 37.300781 -34.796875 36.59375 -36.390625 C 35.882812 -37.984375 34.832031 -39.242188 33.4375 -40.171875 C 32.039062 -41.109375 30.257812 -41.578125 28.09375 -41.578125 Z M 28.09375 -41.578125 "/></g></g></g><g fill="#000000" fill-opacity="1"><g transform="translate(538.148757, 594.622694)"><g><path d="M 42.390625 -14.96875 C 42.390625 -11.539062 41.582031 -8.644531 39.96875 -6.28125 C 38.363281 -3.925781 35.96875 -2.140625 32.78125 -0.921875 C 29.59375 0.296875 25.625 0.90625 20.875 0.90625 C 17.363281 0.90625 14.351562 0.675781 11.84375 0.21875 C 9.332031 -0.226562 6.796875 -0.976562 4.234375 -2.03125 L 4.234375 -13.390625 C 6.972656 -12.160156 9.910156 -11.144531 13.046875 -10.34375 C 16.191406 -9.550781 18.953125 -9.15625 21.328125 -9.15625 C 24.003906 -9.15625 25.921875 -9.550781 27.078125 -10.34375 C 28.234375 -11.144531 28.8125 -12.191406 28.8125 -13.484375 C 28.8125 -14.328125 28.578125 -15.085938 28.109375 -15.765625 C 27.648438 -16.441406 26.648438 -17.207031 25.109375 -18.0625 C 23.578125 -18.914062 21.175781 -20.035156 17.90625 -21.421875 C 14.75 -22.742188 12.15625 -24.082031 10.125 -25.4375 C 8.09375 -26.789062 6.585938 -28.390625 5.609375 -30.234375 C 4.640625 -32.085938 4.15625 -34.441406 4.15625 -37.296875 C 4.15625 -41.953125 5.960938 -45.457031 9.578125 -47.8125 C 13.203125 -50.175781 18.050781 -51.359375 24.125 -51.359375 C 27.25 -51.359375 30.234375 -51.039062 33.078125 -50.40625 C 35.921875 -49.78125 38.84375 -48.773438 41.84375 -47.390625 L 37.703125 -37.46875 C 35.203125 -38.550781 32.847656 -39.4375 30.640625 -40.125 C 28.429688 -40.820312 26.1875 -41.171875 23.90625 -41.171875 C 21.882812 -41.171875 20.363281 -40.898438 19.34375 -40.359375 C 18.320312 -39.816406 17.8125 -38.988281 17.8125 -37.875 C 17.8125 -37.070312 18.070312 -36.351562 18.59375 -35.71875 C 19.125 -35.082031 20.148438 -34.378906 21.671875 -33.609375 C 23.191406 -32.847656 25.421875 -31.867188 28.359375 -30.671875 C 31.222656 -29.492188 33.707031 -28.265625 35.8125 -26.984375 C 37.914062 -25.710938 39.535156 -24.132812 40.671875 -22.25 C 41.816406 -20.375 42.390625 -17.945312 42.390625 -14.96875 Z M 42.390625 -14.96875 "/></g></g></g></svg>